<mxfile host="app.diagrams.net" modified="2023-04-22T18:50:45.411Z" agent="Mozilla/5.0 (Macintosh; Intel Mac OS X 10_15_7) AppleWebKit/537.36 (KHTML, like Gecko) Chrome/112.0.0.0 Safari/537.36" etag="ZXmKk9VA_e75yBuPeOgQ" version="21.1.7" type="github">
  <diagram name="Page-1" id="VqIDkA7dPKOIa9BrkcES">
    <mxGraphModel dx="1242" dy="708" grid="1" gridSize="10" guides="1" tooltips="1" connect="1" arrows="1" fold="1" page="1" pageScale="1" pageWidth="850" pageHeight="1100" math="0" shadow="0">
      <root>
        <mxCell id="0" />
        <mxCell id="1" parent="0" />
        <mxCell id="nPDGVvIBBF1M5KPT08QQ-3" value="Empresa" style="swimlane;fontStyle=0;childLayout=stackLayout;horizontal=1;startSize=30;horizontalStack=0;resizeParent=1;resizeParentMax=0;resizeLast=0;collapsible=1;marginBottom=0;whiteSpace=wrap;html=1;" vertex="1" parent="1">
          <mxGeometry x="90" y="165" width="220" height="90" as="geometry" />
        </mxCell>
        <mxCell id="nPDGVvIBBF1M5KPT08QQ-5" value="CalcularSueldos()" style="text;strokeColor=none;fillColor=none;align=left;verticalAlign=middle;spacingLeft=4;spacingRight=4;overflow=hidden;points=[[0,0.5],[1,0.5]];portConstraint=eastwest;rotatable=0;whiteSpace=wrap;html=1;" vertex="1" parent="nPDGVvIBBF1M5KPT08QQ-3">
          <mxGeometry y="30" width="220" height="30" as="geometry" />
        </mxCell>
        <mxCell id="nPDGVvIBBF1M5KPT08QQ-6" value="GetEmpleados():Empleados[]" style="text;strokeColor=none;fillColor=none;align=left;verticalAlign=middle;spacingLeft=4;spacingRight=4;overflow=hidden;points=[[0,0.5],[1,0.5]];portConstraint=eastwest;rotatable=0;whiteSpace=wrap;html=1;" vertex="1" parent="nPDGVvIBBF1M5KPT08QQ-3">
          <mxGeometry y="60" width="220" height="30" as="geometry" />
        </mxCell>
        <mxCell id="nPDGVvIBBF1M5KPT08QQ-7" value="Empleado" style="swimlane;fontStyle=0;childLayout=stackLayout;horizontal=1;startSize=30;horizontalStack=0;resizeParent=1;resizeParentMax=0;resizeLast=0;collapsible=1;marginBottom=0;whiteSpace=wrap;html=1;" vertex="1" parent="1">
          <mxGeometry x="470" y="130" width="190" height="120" as="geometry" />
        </mxCell>
        <mxCell id="nPDGVvIBBF1M5KPT08QQ-8" value="Descuento()" style="text;strokeColor=none;fillColor=none;align=left;verticalAlign=middle;spacingLeft=4;spacingRight=4;overflow=hidden;points=[[0,0.5],[1,0.5]];portConstraint=eastwest;rotatable=0;whiteSpace=wrap;html=1;" vertex="1" parent="nPDGVvIBBF1M5KPT08QQ-7">
          <mxGeometry y="30" width="190" height="30" as="geometry" />
        </mxCell>
        <mxCell id="nPDGVvIBBF1M5KPT08QQ-47" value="Basico():Valor: Double" style="text;strokeColor=none;fillColor=none;align=left;verticalAlign=middle;spacingLeft=4;spacingRight=4;overflow=hidden;points=[[0,0.5],[1,0.5]];portConstraint=eastwest;rotatable=0;whiteSpace=wrap;html=1;fontStyle=2" vertex="1" parent="nPDGVvIBBF1M5KPT08QQ-7">
          <mxGeometry y="60" width="190" height="30" as="geometry" />
        </mxCell>
        <mxCell id="nPDGVvIBBF1M5KPT08QQ-48" value="Adicional():Valor: Double" style="text;strokeColor=none;fillColor=none;align=left;verticalAlign=middle;spacingLeft=4;spacingRight=4;overflow=hidden;points=[[0,0.5],[1,0.5]];portConstraint=eastwest;rotatable=0;whiteSpace=wrap;html=1;fontStyle=2" vertex="1" parent="nPDGVvIBBF1M5KPT08QQ-7">
          <mxGeometry y="90" width="190" height="30" as="geometry" />
        </mxCell>
        <mxCell id="nPDGVvIBBF1M5KPT08QQ-23" value="Temporario" style="swimlane;fontStyle=0;childLayout=stackLayout;horizontal=1;startSize=30;horizontalStack=0;resizeParent=1;resizeParentMax=0;resizeLast=0;collapsible=1;marginBottom=0;whiteSpace=wrap;html=1;" vertex="1" parent="1">
          <mxGeometry x="130" y="400" width="190" height="90" as="geometry" />
        </mxCell>
        <mxCell id="nPDGVvIBBF1M5KPT08QQ-25" value="Basico():Valor: Double" style="text;strokeColor=none;fillColor=none;align=left;verticalAlign=middle;spacingLeft=4;spacingRight=4;overflow=hidden;points=[[0,0.5],[1,0.5]];portConstraint=eastwest;rotatable=0;whiteSpace=wrap;html=1;fontStyle=0" vertex="1" parent="nPDGVvIBBF1M5KPT08QQ-23">
          <mxGeometry y="30" width="190" height="30" as="geometry" />
        </mxCell>
        <mxCell id="nPDGVvIBBF1M5KPT08QQ-26" value="Adicional():Valor: Double" style="text;strokeColor=none;fillColor=none;align=left;verticalAlign=middle;spacingLeft=4;spacingRight=4;overflow=hidden;points=[[0,0.5],[1,0.5]];portConstraint=eastwest;rotatable=0;whiteSpace=wrap;html=1;fontStyle=0" vertex="1" parent="nPDGVvIBBF1M5KPT08QQ-23">
          <mxGeometry y="60" width="190" height="30" as="geometry" />
        </mxCell>
        <mxCell id="nPDGVvIBBF1M5KPT08QQ-27" value="Pasante" style="swimlane;fontStyle=0;childLayout=stackLayout;horizontal=1;startSize=30;horizontalStack=0;resizeParent=1;resizeParentMax=0;resizeLast=0;collapsible=1;marginBottom=0;whiteSpace=wrap;html=1;" vertex="1" parent="1">
          <mxGeometry x="550" y="410" width="140" height="90" as="geometry" />
        </mxCell>
        <mxCell id="nPDGVvIBBF1M5KPT08QQ-35" value="Basico():Valor: Double" style="text;strokeColor=none;fillColor=none;align=left;verticalAlign=middle;spacingLeft=4;spacingRight=4;overflow=hidden;points=[[0,0.5],[1,0.5]];portConstraint=eastwest;rotatable=0;whiteSpace=wrap;html=1;fontStyle=0" vertex="1" parent="nPDGVvIBBF1M5KPT08QQ-27">
          <mxGeometry y="30" width="140" height="30" as="geometry" />
        </mxCell>
        <mxCell id="nPDGVvIBBF1M5KPT08QQ-36" value="Adicional():Valor: Double" style="text;strokeColor=none;fillColor=none;align=left;verticalAlign=middle;spacingLeft=4;spacingRight=4;overflow=hidden;points=[[0,0.5],[1,0.5]];portConstraint=eastwest;rotatable=0;whiteSpace=wrap;html=1;fontStyle=0" vertex="1" parent="nPDGVvIBBF1M5KPT08QQ-27">
          <mxGeometry y="60" width="140" height="30" as="geometry" />
        </mxCell>
        <mxCell id="nPDGVvIBBF1M5KPT08QQ-31" value="Planta" style="swimlane;fontStyle=0;childLayout=stackLayout;horizontal=1;startSize=30;horizontalStack=0;resizeParent=1;resizeParentMax=0;resizeLast=0;collapsible=1;marginBottom=0;whiteSpace=wrap;html=1;" vertex="1" parent="1">
          <mxGeometry x="770" y="400" width="180" height="90" as="geometry" />
        </mxCell>
        <mxCell id="nPDGVvIBBF1M5KPT08QQ-38" value="Adicional():Valor: Double" style="text;strokeColor=none;fillColor=none;align=left;verticalAlign=middle;spacingLeft=4;spacingRight=4;overflow=hidden;points=[[0,0.5],[1,0.5]];portConstraint=eastwest;rotatable=0;whiteSpace=wrap;html=1;fontStyle=0" vertex="1" parent="nPDGVvIBBF1M5KPT08QQ-31">
          <mxGeometry y="30" width="180" height="30" as="geometry" />
        </mxCell>
        <mxCell id="nPDGVvIBBF1M5KPT08QQ-37" value="Basico():Valor: Double" style="text;strokeColor=none;fillColor=none;align=left;verticalAlign=middle;spacingLeft=4;spacingRight=4;overflow=hidden;points=[[0,0.5],[1,0.5]];portConstraint=eastwest;rotatable=0;whiteSpace=wrap;html=1;fontStyle=0" vertex="1" parent="nPDGVvIBBF1M5KPT08QQ-31">
          <mxGeometry y="60" width="180" height="30" as="geometry" />
        </mxCell>
        <mxCell id="nPDGVvIBBF1M5KPT08QQ-39" value="" style="endArrow=classic;html=1;rounded=0;exitX=0.458;exitY=-0.006;exitDx=0;exitDy=0;exitPerimeter=0;shape=flexArrow;width=6;endSize=7.3;" edge="1" parent="1" source="nPDGVvIBBF1M5KPT08QQ-23" target="nPDGVvIBBF1M5KPT08QQ-48">
          <mxGeometry width="50" height="50" relative="1" as="geometry">
            <mxPoint x="310" y="390" as="sourcePoint" />
            <mxPoint x="498.98" y="329.49" as="targetPoint" />
          </mxGeometry>
        </mxCell>
        <mxCell id="nPDGVvIBBF1M5KPT08QQ-40" value="" style="endArrow=classic;html=1;rounded=0;exitX=0.3;exitY=-0.05;exitDx=0;exitDy=0;exitPerimeter=0;entryX=0.516;entryY=0.967;entryDx=0;entryDy=0;entryPerimeter=0;shape=flexArrow;" edge="1" parent="1" source="nPDGVvIBBF1M5KPT08QQ-27" target="nPDGVvIBBF1M5KPT08QQ-48">
          <mxGeometry width="50" height="50" relative="1" as="geometry">
            <mxPoint x="297" y="339" as="sourcePoint" />
            <mxPoint x="528.94" y="329.49" as="targetPoint" />
          </mxGeometry>
        </mxCell>
        <mxCell id="nPDGVvIBBF1M5KPT08QQ-41" value="" style="endArrow=classic;html=1;rounded=0;exitX=0.5;exitY=0;exitDx=0;exitDy=0;entryX=0.737;entryY=1.167;entryDx=0;entryDy=0;entryPerimeter=0;shape=flexArrow;" edge="1" parent="1" source="nPDGVvIBBF1M5KPT08QQ-31" target="nPDGVvIBBF1M5KPT08QQ-48">
          <mxGeometry width="50" height="50" relative="1" as="geometry">
            <mxPoint x="307" y="349" as="sourcePoint" />
            <mxPoint x="555.96" y="333.51" as="targetPoint" />
          </mxGeometry>
        </mxCell>
        <mxCell id="nPDGVvIBBF1M5KPT08QQ-44" value="" style="endArrow=classic;html=1;rounded=0;exitX=1.021;exitY=0.05;exitDx=0;exitDy=0;exitPerimeter=0;entryX=-0.026;entryY=0.033;entryDx=0;entryDy=0;entryPerimeter=0;" edge="1" parent="1" source="nPDGVvIBBF1M5KPT08QQ-5" target="nPDGVvIBBF1M5KPT08QQ-47">
          <mxGeometry width="50" height="50" relative="1" as="geometry">
            <mxPoint x="310" y="390" as="sourcePoint" />
            <mxPoint x="501.79999999999995" y="270" as="targetPoint" />
          </mxGeometry>
        </mxCell>
        <mxCell id="nPDGVvIBBF1M5KPT08QQ-46" value="Template Method&lt;br style=&quot;font-size: 22px;&quot;&gt;" style="text;html=1;align=center;verticalAlign=middle;resizable=0;points=[];autosize=1;strokeColor=none;fillColor=none;fontSize=22;" vertex="1" parent="1">
          <mxGeometry x="730" y="40" width="190" height="40" as="geometry" />
        </mxCell>
      </root>
    </mxGraphModel>
  </diagram>
</mxfile>
